# xmcd
#
# Track frame offsets:
#	150
#	17012
#	33379
#	52095
#	70422
#	76893
#	95903
#	108246
#	124546
#	140257
#	163014
#	187216
#	206934
#	215420
#	230521
#
# Disc length: 3353 seconds
#
# Revision: 1
# Processed by: cddbd v1.5.2PL0 Copyright (c) Steve Scherf et al.
# Submitted via: audiograbber 1.83.01
#
DISCID=dc0d170f
DTITLE=Various Artist - FH The Very Best Of Country Vol 2
DYEAR=1900
DGENRE=Country
TTITLE0=Gretchen Wilson - Redneck Woman
TTITLE1=Gretchen Wilson - Here For The Party
TTITLE2=Gretchen Wilson - When I Think About Cheatin'
TTITLE3=Trisha Yearwood - She's In Love With The Boy
TTITLE4=Various Artist - My Old Kentucky Home
TTITLE5=Faith Hill - Breathe
TTITLE6=Mindy McCready - A Girls Gotta Do (What A Girls Gotta Do)
TTITLE7=Martina McBride - Independance Day
TTITLE8=Martina McBride - In My Daughters Eyes
TTITLE9=Trisha Yearwood and Don Henley - Walkaway Joe
TTITLE10=Shania Twain - From This Moment On
TTITLE11=Dixie Chicks - Goodbye Earl
TTITLE12=Various Artist - In The Good Old Summertime
TTITLE13=Mary Chapin Carpenter - Down At The Twist And Shout
TTITLE14=Shania Twain - Whose Bed Have Your Boots Been Under
EXTD=
EXTT0=
EXTT1=
EXTT2=
EXTT3=
EXTT4=
EXTT5=
EXTT6=
EXTT7=
EXTT8=
EXTT9=
EXTT10=
EXTT11=
EXTT12=
EXTT13=
EXTT14=
PLAYORDER=
